# xmcd
#
# Track frame offsets:
#	150
#	24540
#	45172
#	71822
#	92657
#	112712
#	134015
#	152467
#	169790
#	192617
#	215335
#	237995
#	260967
#	285360
#	311842
#
# Disc length: 4470 seconds
#
# Revision: 1
# Processed by: cddbd v1.5.1PL0 Copyright (c) Steve Scherf et al.
# Submitted via: CDex 1.50Beta5
#
DISCID=d411740f
DTITLE=Various Artist - Ballad 4
DYEAR=1900
DGENRE=Pop
TTITLE0=シャ乱Q/シングルベッド
TTITLE1=福山雅治/IT'S ONLY LOVE
TTITLE2=竹内まりや/Farewell Call
TTITLE3=稲垣潤一/メリークリスマスが言えない
TTITLE4=久松史奈/天使の休息
TTITLE5=大貫妙子/夏に恋する女たち
TTITLE6=竹内まりや/象牙海岸
TTITLE7=吉田美奈子/夢で逢えたら
TTITLE8=小林武史/夏の午後
TTITLE9=矢野顕子/Watching You
TTITLE10=竹内まりや/突然の贈りもの
TTITLE11=稲垣潤一/時を越えて
TTITLE12=杉山清貴/最後のHOLI NIGHT
TTITLE13=福山雅治/GOOD NIGHT
TTITLE14=大橋純子/愛は時を越えて
EXTD=
EXTT0=
EXTT1=
EXTT2=
EXTT3=
EXTT4=
EXTT5=
EXTT6=
EXTT7=
EXTT8=
EXTT9=
EXTT10=
EXTT11=
EXTT12=
EXTT13=
EXTT14=
PLAYORDER=
